<?xml version="1.0" standalone="no"?>
<!DOCTYPE svg PUBLIC "-//W3C//DTD SVG 20010904//EN"
 "http://www.w3.org/TR/2001/REC-SVG-20010904/DTD/svg10.dtd">
<svg version="1.0" xmlns="http://www.w3.org/2000/svg"
 width="100.000000pt" height="100.000000pt" viewBox="0 0 100.000000 100.000000"
 preserveAspectRatio="xMidYMid meet">

<g transform="translate(0.000000,100.000000) scale(0.100000,-0.100000)"
fill="#000000" stroke="none">
<path d="M273 873 l-203 -115 0 -253 0 -253 204 -121 c113 -67 213 -121 224
-121 18 0 381 200 416 229 14 12 16 44 14 260 l-3 246 -205 123 c-112 67 -214
122 -225 121 -11 0 -111 -52 -222 -116z m286 -214 c17 -6 36 -19 41 -29 15
-27 12 -83 -4 -106 -13 -17 -12 -22 7 -42 31 -33 28 -85 -6 -120 -25 -25 -35
-27 -122 -30 l-95 -4 0 171 0 171 74 0 c40 0 87 -5 105 -11z"/>
<path d="M440 575 l0 -45 48 0 c53 0 72 12 72 47 0 28 -27 43 -79 43 l-41 0 0
-45z"/>
<path d="M440 430 l0 -50 49 0 c53 0 81 17 81 50 0 33 -28 50 -81 50 l-49 0 0
-50z"/>
</g>
</svg>
